<svg xmlns="http://www.w3.org/2000/svg" width="600" height="400" viewBox="0 0 600 400"><rect width="100%" height="100%" fill="#DDDDDD"/><path fill="#999999" d="M135.64 223.37h12.1q3.34 0 5.61-.81 2.27-.8 3.62-2.13 1.36-1.34 1.96-3.12t.6-3.78q0-2.09-.66-3.76-.67-1.67-2.1-2.85-1.42-1.18-3.67-1.8-2.24-.62-5.4-.62h-12.06zm10.19-45.75h-10.19v18.6h9.52q6.14 0 9.28-2.22 3.14-2.23 3.14-7.08 0-5.03-2.85-7.16-2.85-2.14-8.9-2.14m-22.16-9.26h22.16q6.32 0 10.81 1.2 4.5 1.21 7.37 3.43 2.87 2.23 4.2 5.39 1.34 3.16 1.34 7.12 0 2.26-.67 4.33t-2.07 3.88q-1.4 1.8-3.56 3.27-2.16 1.46-5.14 2.49 13.26 2.98 13.26 14.33 0 4.09-1.56 7.56-1.55 3.47-4.54 5.99-2.98 2.51-7.34 3.94-4.36 1.42-9.97 1.42h-24.29zm57.22 18.69h11.04v45.66h-11.04zm12.55-13.3q0 1.42-.58 2.67-.57 1.24-1.53 2.18-.96.93-2.25 1.49t-2.76.56q-1.42 0-2.69-.56t-2.2-1.49q-.94-.94-1.49-2.18-.56-1.25-.56-2.67 0-1.47.56-2.76.55-1.29 1.49-2.23.93-.93 2.2-1.49 1.27-.55 2.69-.55 1.47 0 2.76.55 1.29.56 2.25 1.49.96.94 1.53 2.23.58 1.29.58 2.76m9.84-7.17h10.99v66.13h-10.99zm50.64 52.6v-20.47q-1.87-2.27-4.07-3.2-2.21-.94-4.74-.94-2.5 0-4.5.94-2 .93-3.42 2.82-1.43 1.9-2.18 4.81-.76 2.91-.76 6.87 0 4.01.64 6.79.65 2.78 1.85 4.54t2.94 2.54q1.73.78 3.87.78 3.43 0 5.83-1.43 2.4-1.42 4.54-4.05m0-52.6h10.99v66.13h-6.72q-2.18 0-2.76-2l-.93-4.41q-2.76 3.16-6.34 5.12-3.59 1.96-8.35 1.96-3.74 0-6.85-1.56-3.12-1.56-5.36-4.52-2.25-2.96-3.47-7.32-1.23-4.36-1.23-9.97 0-5.07 1.38-9.43t3.96-7.56q2.58-3.21 6.19-5.01 3.6-1.8 8.1-1.8 3.82 0 6.54 1.2 2.71 1.2 4.85 3.25zm57.67 66.13H300.6v-37.38l-3.96-.62q-1.29-.27-2.07-.92-.78-.64-.78-1.84v-4.5h6.81v-3.38q0-3.91 1.18-7.03 1.18-3.11 3.38-5.29 2.2-2.19 5.36-3.34 3.16-1.16 7.12-1.16 3.16 0 5.88.85l-.23 5.51q-.04.63-.35 1.01-.31.37-.83.57-.51.2-1.18.27-.66.07-1.42.07-1.96 0-3.49.42-1.54.42-2.61 1.47-1.06 1.04-1.62 2.76-.56 1.71-.56 4.25v3.02h11.89v7.84h-11.53zm26.39-28.08h20.74q0-2.14-.61-4.03-.6-1.89-1.8-3.31-1.2-1.43-3.05-2.25-1.84-.82-4.29-.82-4.76 0-7.5 2.71-2.74 2.72-3.49 7.7m28.03 6.63h-28.25q.26 3.52 1.24 6.08.98 2.55 2.58 4.22t3.81 2.49q2.2.83 4.87.83t4.61-.63q1.93-.62 3.38-1.37 1.44-.76 2.53-1.38 1.09-.63 2.12-.63 1.38 0 2.05 1.03l3.15 4q-1.82 2.14-4.09 3.58-2.27 1.45-4.74 2.32t-5.03 1.22q-2.56.36-4.96.36-4.76 0-8.85-1.58-4.1-1.58-7.12-4.67-3.03-3.1-4.77-7.66-1.73-4.56-1.73-10.57 0-4.67 1.51-8.79 1.51-4.11 4.34-7.16t6.9-4.83 9.19-1.78q4.31 0 7.96 1.38t6.28 4.03q2.62 2.65 4.11 6.49 1.49 3.85 1.49 8.79 0 2.5-.53 3.36-.53.87-2.05.87m21.81-44.68v25.37q2.67-2.49 5.87-4.05 3.21-1.56 7.52-1.56 3.74 0 6.63 1.27 2.9 1.27 4.83 3.56 1.94 2.29 2.94 5.47t1 7.01v29.06h-10.99v-29.06q0-4.18-1.92-6.47-1.91-2.29-5.82-2.29-2.85 0-5.34 1.29-2.5 1.29-4.72 3.51v33.02h-10.99v-66.13zm39.34 0h10.99v66.13h-10.99zm37.2 66.84q-5.96 0-9.15-3.36-3.18-3.36-3.18-9.28v-25.49h-4.67q-.89 0-1.51-.58-.63-.58-.63-1.74v-4.36l7.35-1.2 2.31-12.46q.22-.89.85-1.38.62-.49 1.6-.49h5.69v14.37h12.2v7.84h-12.2v24.74q0 2.13 1.05 3.34 1.04 1.2 2.87 1.2 1.02 0 1.71-.25.69-.24 1.2-.51.52-.27.92-.51.4-.25.8-.25.49 0 .8.25.31.24.67.73l3.29 5.34q-2.4 2.01-5.52 3.03-3.11 1.02-6.45 1.02"/></svg>