<svg width="331" height="90" viewBox="0 0 331 90" fill="none" xmlns="http://www.w3.org/2000/svg">
<g clip-path="url(#clip0_674_9341)">
<path d="M96.4365 88.8981V71.4038H102.79C104.678 71.4038 106.305 71.7579 107.68 72.461C109.056 73.164 110.113 74.1698 110.857 75.4784C111.601 76.7819 111.976 78.3317 111.976 80.1278C111.976 82.9041 111.139 85.0595 109.466 86.599C107.793 88.1334 105.422 88.9032 102.353 88.9032H96.4365V88.8981ZM102.425 73.1743H98.5098V87.1224H102.4C107.326 87.1224 109.789 84.7978 109.789 80.1484C109.789 75.499 107.336 73.1743 102.425 73.1743Z" fill="white"/>
<path d="M116.281 74.339C115.896 74.339 115.578 74.2056 115.327 73.949C115.075 73.6873 114.947 73.3589 114.947 72.9586C114.947 72.5583 115.075 72.2299 115.327 71.9681C115.578 71.7064 115.896 71.5781 116.281 71.5781C116.681 71.5781 117.005 71.7115 117.251 71.9681C117.497 72.2299 117.62 72.5583 117.62 72.9586C117.62 73.3589 117.497 73.6873 117.251 73.949C117.005 74.2056 116.681 74.339 116.281 74.339ZM115.316 88.9338V77.4232H117.271V88.9338H115.316Z" fill="white"/>
<path d="M126.986 89.3033C125.683 89.3033 124.549 89.0569 123.589 88.5643C122.629 88.0716 121.895 87.3737 121.377 86.4551C120.864 85.5417 120.607 84.464 120.607 83.2221C120.607 82.011 120.854 80.9436 121.346 80.025C121.839 79.1064 122.511 78.3777 123.373 77.8491C124.236 77.3206 125.216 77.0537 126.319 77.0537C127.361 77.0537 128.269 77.2949 129.044 77.767C129.819 78.2443 130.425 78.9012 130.861 79.7479C131.297 80.5946 131.518 81.5851 131.518 82.7192C131.518 82.9193 131.512 83.1041 131.507 83.2734C131.502 83.4428 131.487 83.6173 131.471 83.802H122.542C122.681 85.0131 123.143 85.942 123.923 86.5886C124.708 87.2352 125.755 87.5585 127.079 87.5585C128.428 87.5585 129.747 87.2454 131.04 86.6142L131.271 88.2718C130.748 88.5951 130.106 88.8465 129.352 89.0313C128.587 89.2109 127.797 89.3033 126.986 89.3033ZM126.206 78.7369C125.206 78.7369 124.39 79.05 123.743 79.6709C123.101 80.2919 122.706 81.1591 122.568 82.2625H129.634C129.634 82.0931 129.619 81.934 129.588 81.7801C129.465 80.7999 129.106 80.0455 128.516 79.5272C127.925 78.9935 127.156 78.7369 126.206 78.7369Z" fill="white"/>
<path d="M147.795 89.3032C145.491 89.3032 143.7 88.6412 142.422 87.3121C141.14 85.9829 140.498 84.1304 140.498 81.7543V71.4395H142.571V81.5696C142.571 83.4889 143.018 84.9412 143.916 85.9316C144.814 86.9221 146.128 87.4147 147.862 87.4147C149.597 87.4147 150.91 86.9221 151.809 85.9316C152.707 84.9412 153.153 83.4889 153.153 81.5696V71.4395H155.226V81.7543C155.226 84.1355 154.569 85.9881 153.256 87.3121C151.952 88.6361 150.13 89.3032 147.795 89.3032Z" fill="white"/>
<path d="M159.604 88.934V77.4234H161.446L161.471 79.4043C161.795 78.6653 162.298 78.0906 162.98 77.68C163.663 77.2643 164.443 77.0591 165.315 77.0591C166.68 77.0591 167.732 77.485 168.471 78.3369C169.21 79.1888 169.575 80.405 169.575 81.9856V88.9392H167.619V82.3346C167.619 79.9688 166.701 78.7885 164.858 78.7885C163.832 78.7885 163.026 79.1272 162.441 79.7995C161.856 80.4768 161.564 81.4057 161.564 82.586V88.9392H159.604V88.934Z" fill="white"/>
<path d="M174.614 74.339C174.229 74.339 173.911 74.2056 173.66 73.949C173.408 73.6873 173.28 73.3589 173.28 72.9586C173.28 72.5583 173.408 72.2299 173.66 71.9681C173.911 71.7064 174.229 71.5781 174.614 71.5781C175.014 71.5781 175.338 71.7115 175.584 71.9681C175.83 72.2299 175.953 72.5583 175.953 72.9586C175.953 73.3589 175.83 73.6873 175.584 73.949C175.332 74.2056 175.009 74.339 174.614 74.339ZM173.644 88.9338V77.4232H175.599V88.9338H173.644Z" fill="white"/>
<path d="M182.876 88.9339L178.134 77.4233H180.254L183.892 86.7683L187.531 77.4233H189.511L184.79 88.9339H182.876Z" fill="white"/>
<path d="M197.148 89.3033C195.844 89.3033 194.71 89.0569 193.751 88.5643C192.791 88.0716 192.057 87.3737 191.539 86.4551C191.026 85.5417 190.769 84.464 190.769 83.2221C190.769 82.011 191.015 80.9436 191.508 80.025C192.001 79.1064 192.673 78.3777 193.535 77.8491C194.397 77.3206 195.377 77.0537 196.481 77.0537C197.522 77.0537 198.431 77.2949 199.206 77.767C199.981 78.2443 200.586 78.9012 201.022 79.7479C201.459 80.5946 201.679 81.5851 201.679 82.7192C201.679 82.9193 201.674 83.1041 201.669 83.2734C201.664 83.4428 201.648 83.6173 201.633 83.802H192.704C192.842 85.0131 193.304 85.942 194.084 86.5886C194.869 87.2352 195.916 87.5585 197.24 87.5585C198.59 87.5585 199.909 87.2454 201.202 86.6142L201.433 88.2718C200.909 88.5951 200.268 88.8465 199.514 89.0313C198.749 89.2109 197.964 89.3033 197.148 89.3033ZM196.368 78.7369C195.367 78.7369 194.551 79.05 193.905 79.6709C193.263 80.2919 192.868 81.1591 192.729 82.2625H199.796C199.796 82.0931 199.78 81.934 199.75 81.7801C199.627 80.7999 199.267 80.0455 198.677 79.5272C198.087 78.9935 197.317 78.7369 196.368 78.7369Z" fill="white"/>
<path d="M205.251 88.9338V77.4232H207.093L207.119 79.8198C207.442 79.0192 207.909 78.3983 208.525 77.9416C209.141 77.4848 209.839 77.2642 210.619 77.2642C210.85 77.2642 211.101 77.2898 211.368 77.336C211.635 77.3822 211.84 77.4438 211.979 77.5207L211.773 79.3631C211.573 79.2861 211.353 79.2194 211.106 79.168C210.86 79.1167 210.624 79.0859 210.393 79.0859C209.413 79.0859 208.638 79.4554 208.068 80.1893C207.499 80.9283 207.216 81.9546 207.216 83.2735V88.9338H205.251Z" fill="white"/>
<path d="M217.639 89.3033C216.915 89.3033 216.202 89.2058 215.484 89.0056C214.765 88.8055 214.201 88.5438 213.77 88.2205L214.067 86.4962C214.56 86.8503 215.129 87.1325 215.781 87.348C216.433 87.5636 217.049 87.6714 217.634 87.6714C218.496 87.6714 219.163 87.5225 219.635 87.2249C220.112 86.9272 220.348 86.5167 220.348 85.9933C220.348 85.6546 220.271 85.3774 220.118 85.1516C219.964 84.931 219.686 84.7206 219.291 84.5307C218.891 84.3408 218.316 84.1356 217.562 83.92C216.274 83.5351 215.355 83.0784 214.801 82.5396C214.247 82.0007 213.97 81.3028 213.97 80.4458C213.97 79.4041 214.36 78.5778 215.135 77.9723C215.909 77.3667 216.967 77.064 218.301 77.064C218.932 77.064 219.568 77.1512 220.21 77.3308C220.857 77.5104 221.375 77.726 221.775 77.9877L221.452 79.6453C220.472 79.014 219.404 78.701 218.255 78.701C217.49 78.701 216.895 78.8344 216.484 79.1064C216.069 79.3733 215.863 79.753 215.863 80.2457C215.863 80.7229 216.038 81.0975 216.392 81.3747C216.746 81.6518 217.398 81.9289 218.347 82.206C219.82 82.6371 220.851 83.1246 221.442 83.6788C222.032 84.2331 222.329 84.9669 222.329 85.8906C222.329 86.917 221.898 87.7483 221.041 88.3744C220.184 88.9851 219.05 89.3033 217.639 89.3033Z" fill="white"/>
<path d="M226.404 74.339C226.019 74.339 225.701 74.2056 225.45 73.949C225.198 73.6873 225.07 73.3589 225.07 72.9586C225.07 72.5583 225.198 72.2299 225.45 71.9681C225.701 71.7064 226.019 71.5781 226.404 71.5781C226.804 71.5781 227.128 71.7115 227.374 71.9681C227.62 72.2299 227.743 72.5583 227.743 72.9586C227.743 73.3589 227.62 73.6873 227.374 73.949C227.128 74.2056 226.804 74.339 226.404 74.339ZM225.439 88.9338V77.4232H227.395V88.9338H225.439Z" fill="white"/>
<path d="M232.67 88.9336V79.1063H230.022V77.423H232.67V74.1079H234.625V77.423H237.848V79.1063H234.625V88.9336H232.67Z" fill="white"/>
<path d="M244.868 89.3032C243.811 89.3032 242.861 89.0415 242.025 88.5181C241.188 87.9946 240.532 87.2711 240.059 86.3422C239.582 85.4133 239.346 84.3562 239.346 83.1759C239.346 82.0418 239.603 81.0103 240.116 80.0814C240.629 79.1526 241.327 78.4187 242.199 77.8696C243.072 77.3257 244.042 77.0537 245.099 77.0537C245.971 77.0537 246.772 77.2692 247.506 77.7003C248.234 78.1313 248.819 78.7369 249.266 79.5169L249.312 77.4232H251.221V88.9337H249.312L249.266 86.84C248.804 87.62 248.199 88.2307 247.449 88.6566C246.695 89.0877 245.838 89.3032 244.868 89.3032ZM245.376 87.5533C246.177 87.5533 246.874 87.3686 247.47 86.9991C248.07 86.6296 248.542 86.1164 248.886 85.4544C249.23 84.7975 249.404 84.0329 249.404 83.1759C249.404 82.3137 249.23 81.5594 248.886 80.8974C248.542 80.2354 248.07 79.7222 247.47 79.3579C246.874 78.9884 246.171 78.8036 245.376 78.8036C244.596 78.8036 243.898 78.9884 243.293 79.3579C242.687 79.7273 242.21 80.2405 241.866 80.8974C241.522 81.5594 241.348 82.3189 241.348 83.1759C241.348 84.038 241.522 84.7975 241.866 85.4544C242.21 86.1164 242.687 86.6296 243.293 86.9991C243.898 87.3686 244.591 87.5533 245.376 87.5533ZM243.416 74.2004C243.046 74.2004 242.749 74.0875 242.518 73.8566C242.287 73.6256 242.174 73.3229 242.174 72.938C242.174 72.5685 242.292 72.2657 242.533 72.0194C242.769 71.7731 243.067 71.6499 243.421 71.6499C243.79 71.6499 244.093 71.7679 244.329 72.004C244.565 72.2452 244.683 72.5531 244.683 72.938C244.683 73.3075 244.565 73.6102 244.329 73.8463C244.088 74.0824 243.785 74.2004 243.416 74.2004ZM247.814 74.2004C247.444 74.2004 247.147 74.0875 246.916 73.8566C246.685 73.6256 246.567 73.3229 246.567 72.938C246.567 72.5685 246.685 72.2657 246.926 72.0194C247.162 71.7731 247.46 71.6499 247.814 71.6499C248.183 71.6499 248.486 71.7679 248.722 72.004C248.958 72.2452 249.076 72.5531 249.076 72.938C249.076 73.3075 248.958 73.6102 248.722 73.8463C248.486 74.0824 248.183 74.2004 247.814 74.2004Z" fill="white"/>
<path d="M256.492 88.9336V79.1063H253.844V77.423H256.492V74.1079H258.447V77.423H261.67V79.1063H258.447V88.9336H256.492Z" fill="white"/>
<path d="M267.222 89.3033C266.499 89.3033 265.78 89.2058 265.067 89.0056C264.354 88.8055 263.784 88.5438 263.353 88.2205L263.651 86.4962C264.143 86.8503 264.713 87.1325 265.365 87.348C266.016 87.5636 266.632 87.6714 267.217 87.6714C268.079 87.6714 268.747 87.5225 269.219 87.2249C269.696 86.9272 269.932 86.5167 269.932 85.9933C269.932 85.6546 269.855 85.3774 269.701 85.1516C269.547 84.931 269.27 84.7206 268.875 84.5307C268.475 84.3408 267.9 84.1356 267.145 83.92C265.857 83.5351 264.939 83.0784 264.385 82.5396C263.83 82.0007 263.553 81.3028 263.553 80.4458C263.553 79.4041 263.943 78.5778 264.718 77.9723C265.493 77.3667 266.55 77.064 267.884 77.064C268.516 77.064 269.152 77.1512 269.793 77.3308C270.44 77.5104 270.958 77.726 271.359 77.9877L271.035 79.6453C270.055 79.014 268.988 78.701 267.838 78.701C267.074 78.701 266.478 78.8344 266.068 79.1064C265.652 79.3733 265.447 79.753 265.447 80.2457C265.447 80.7229 265.621 81.0975 265.975 81.3747C266.329 81.6518 266.981 81.9289 267.931 82.206C269.403 82.6371 270.435 83.1246 271.025 83.6788C271.615 84.2331 271.913 84.9669 271.913 85.8906C271.913 86.917 271.482 87.7483 270.625 88.3744C269.768 89.0005 268.634 89.3033 267.222 89.3033Z" fill="white"/>
<path d="M277.809 89.3033C277.086 89.3033 276.372 89.2058 275.654 89.0056C274.941 88.8055 274.371 88.5438 273.94 88.2205L274.238 86.4962C274.73 86.8503 275.3 87.1325 275.952 87.348C276.603 87.5636 277.219 87.6714 277.804 87.6714C278.666 87.6714 279.333 87.5225 279.806 87.2249C280.283 86.9272 280.519 86.5167 280.519 85.9933C280.519 85.6546 280.442 85.3774 280.288 85.1516C280.134 84.931 279.857 84.7206 279.462 84.5307C279.061 84.3408 278.487 84.1356 277.732 83.92C276.444 83.5351 275.526 83.0784 274.971 82.5396C274.417 82.0007 274.14 81.3028 274.14 80.4458C274.14 79.4041 274.53 78.5778 275.305 77.9723C276.08 77.3667 277.137 77.064 278.471 77.064C279.103 77.064 279.739 77.1512 280.38 77.3308C281.027 77.5104 281.545 77.726 281.946 77.9877L281.622 79.6453C280.642 79.014 279.575 78.701 278.425 78.701C277.66 78.701 277.065 78.8344 276.655 79.1064C276.239 79.3733 276.034 79.753 276.034 80.2457C276.034 80.7229 276.208 81.0975 276.562 81.3747C276.916 81.6518 277.568 81.9289 278.517 82.206C279.99 82.6371 281.022 83.1246 281.612 83.6788C282.202 84.2331 282.5 84.9669 282.5 85.8906C282.5 86.917 282.069 87.7483 281.212 88.3744C280.355 89.0005 279.221 89.3033 277.809 89.3033Z" fill="white"/>
<path d="M286.738 88.9336V79.1063H284.09V77.423H286.738V74.1079H288.694V77.423H291.916V79.1063H288.694V88.9336H286.738Z" fill="white"/>
<path d="M298.942 89.3033C297.885 89.3033 296.935 89.0416 296.099 88.5181C295.262 87.9947 294.605 87.2711 294.133 86.3422C293.656 85.4134 293.42 84.3562 293.42 83.1759C293.42 82.0418 293.677 81.0103 294.19 80.0815C294.703 79.1526 295.401 78.4188 296.273 77.8697C297.146 77.3257 298.115 77.0537 299.173 77.0537C300.045 77.0537 300.851 77.2693 301.579 77.7003C302.308 78.1314 302.893 78.7369 303.34 79.517L303.386 77.4232H305.295V88.9338H303.386L303.34 86.84C302.878 87.6201 302.272 88.2307 301.523 88.6567C300.769 89.0877 299.907 89.3033 298.942 89.3033ZM299.45 87.5533C300.25 87.5533 300.948 87.3686 301.544 86.9991C302.144 86.6296 302.616 86.1164 302.96 85.4544C303.304 84.7976 303.478 84.0329 303.478 83.1759C303.478 82.3138 303.304 81.5594 302.96 80.8974C302.616 80.2354 302.144 79.7222 301.544 79.3579C300.948 78.9884 300.245 78.8037 299.45 78.8037C298.67 78.8037 297.972 78.9884 297.366 79.3579C296.761 79.7274 296.283 80.2406 295.94 80.8974C295.596 81.5594 295.421 82.3189 295.421 83.1759C295.421 84.0381 295.591 84.7976 295.94 85.4544C296.283 86.1164 296.761 86.6296 297.366 86.9991C297.972 87.3686 298.665 87.5533 299.45 87.5533Z" fill="white"/>
<path d="M314.158 89.3031C313.1 89.3031 312.151 89.0413 311.315 88.5179C310.478 87.9944 309.821 87.2709 309.349 86.342C308.872 85.4132 308.636 84.356 308.636 83.1757C308.636 82.0416 308.892 81.0101 309.406 80.0812C309.919 79.1524 310.617 78.4185 311.489 77.8694C312.361 77.3255 313.331 77.0535 314.388 77.0535C315.261 77.0535 316.067 77.269 316.795 77.7001C317.524 78.1312 318.109 78.7367 318.555 79.5168V70.2847H320.511V88.9336H318.602L318.555 86.8398C318.094 87.6198 317.488 88.2305 316.739 88.6565C315.984 89.0875 315.122 89.3031 314.158 89.3031ZM314.666 87.5531C315.466 87.5531 316.164 87.3684 316.759 86.9989C317.36 86.6294 317.832 86.1162 318.176 85.4542C318.52 84.7973 318.694 84.0327 318.694 83.1757C318.694 82.3136 318.52 81.5592 318.176 80.8972C317.832 80.2352 317.36 79.722 316.759 79.3577C316.164 78.9882 315.461 78.8034 314.666 78.8034C313.886 78.8034 313.188 78.9882 312.582 79.3577C311.977 79.7272 311.499 80.2403 311.155 80.8972C310.812 81.5592 310.637 82.3187 310.637 83.1757C310.637 84.0378 310.807 84.7973 311.155 85.4542C311.499 86.1162 311.977 86.6294 312.582 86.9989C313.188 87.3684 313.88 87.5531 314.666 87.5531Z" fill="white"/>
<path d="M325.781 88.9336V79.1063H323.133V77.423H325.781V74.1079H327.736V77.423H330.959V79.1063H327.736V88.9336H325.781Z" fill="white"/>
<path d="M96.4365 55.3666V23.293H105.468L114.08 41.1875L122.691 23.293H131.512V55.3666H123.661V35.3219L117.287 48.49H110.703L104.288 35.2398V55.3717H96.4365V55.3666Z" fill="white"/>
<path d="M135.73 55.3666L148.308 23.293H157.13L169.708 55.3666H160.758L158.269 47.8999H146.62L144.131 55.3666H135.73ZM148.729 41.5211H156.155L152.44 30.2517L148.729 41.5211Z" fill="white"/>
<path d="M173.921 55.3666V23.293H185.612C189.548 23.293 192.622 24.2577 194.833 26.1822C197.04 28.1117 198.149 30.7905 198.149 34.2237C198.149 36.0506 197.707 37.7082 196.819 39.181C195.932 40.6589 194.797 41.8752 193.422 42.8297L201.274 55.3615H191.949L186.335 45.062H182.03V55.3615H173.921V55.3666ZM184.472 29.4922H182.024V38.8628H184.39C188.075 38.8628 189.917 37.2873 189.917 34.1364C189.917 31.042 188.106 29.4922 184.472 29.4922Z" fill="white"/>
<path d="M205.533 55.3666V23.293H218.07C221.729 23.293 224.505 23.996 226.404 25.4021C228.303 26.8082 229.252 28.861 229.252 31.5654C229.252 33.0587 228.908 34.393 228.221 35.5733C227.533 36.7536 226.553 37.6568 225.285 38.2726C227.03 38.7499 228.411 39.6787 229.422 41.0592C230.433 42.4396 230.941 44.0818 230.941 45.996C230.941 49.0648 229.94 51.3895 227.944 52.9803C225.947 54.5712 223.007 55.3666 219.122 55.3666H205.533ZM217.393 29.1175H213.174V36.3328H217.352C220.164 36.3328 221.57 35.0961 221.57 32.6174C221.57 30.2825 220.179 29.1175 217.393 29.1175ZM218.404 41.947H213.169V49.542H218.573C221.416 49.542 222.838 48.2745 222.838 45.7445C222.838 43.2094 221.36 41.947 218.404 41.947Z" fill="white"/>
<path d="M250.647 56.0389C245.92 56.0389 242.277 54.7816 239.716 52.2619C237.155 49.7473 235.877 46.1499 235.877 41.48V23.293H244.442V40.8898C244.442 46.0114 246.51 48.5721 250.647 48.5721C254.783 48.5721 256.851 46.0114 256.851 40.8898V23.293H265.416V41.48C265.416 46.1499 264.143 49.7473 261.598 52.2619C259.053 54.7816 255.404 56.0389 250.647 56.0389Z" fill="white"/>
<path d="M271.918 55.3666V23.293H283.608C287.544 23.293 290.618 24.2577 292.83 26.1822C295.037 28.1117 296.145 30.7905 296.145 34.2237C296.145 36.0506 295.704 37.7082 294.816 39.181C293.928 40.6589 292.794 41.8752 291.419 42.8297L299.27 55.3615H289.946L284.332 45.062H280.026V55.3615H271.918V55.3666ZM282.469 29.4922H280.021V38.8628H282.387C286.071 38.8628 287.914 37.2873 287.914 34.1364C287.914 31.042 286.102 29.4922 282.469 29.4922Z" fill="white"/>
<path d="M318.427 55.8287C314.768 55.8287 311.597 55.1769 308.913 53.8683C306.224 52.5597 304.151 50.7123 302.688 48.3209C301.226 45.9295 300.492 43.0864 300.492 39.797C300.492 36.3638 301.272 33.3822 302.837 30.8523C304.397 28.3223 306.583 26.3517 309.4 24.9456C312.213 23.5395 315.523 22.8364 319.32 22.8364C321.234 22.8364 323.174 23.0571 325.145 23.4933C327.115 23.9295 328.87 24.5248 330.42 25.2843L329.071 32.0788C325.838 30.6419 322.558 29.9234 319.238 29.9234C317.155 29.9234 315.343 30.3186 313.793 31.1037C312.243 31.894 311.048 32.9974 310.206 34.4189C309.365 35.8404 308.939 37.5185 308.939 39.4634C308.939 42.445 309.826 44.7594 311.597 46.4067C313.372 48.054 315.861 48.8751 319.069 48.8751C319.772 48.8751 320.475 48.8289 321.178 48.7263C321.881 48.6288 322.584 48.4799 323.287 48.2849V43.0916H317.883V36.8872H330.969V53.3449C329.168 54.1352 327.182 54.7459 325.017 55.1821C322.846 55.6131 320.649 55.8287 318.427 55.8287Z" fill="white"/>
<path d="M62.0687 41.5932H2.50924C1.24169 41.5932 0.215332 40.5668 0.215332 39.2993C0.215332 38.0317 1.24169 37.0054 2.50924 37.0054H62.0687C63.3363 37.0054 64.3626 38.0317 64.3626 39.2993C64.3626 40.5668 63.3363 41.5932 62.0687 41.5932Z" fill="white"/>
<path d="M60.6163 50.7738H3.96139C2.69384 50.7738 1.66748 49.7475 1.66748 48.4799C1.66748 47.2124 2.69384 46.186 3.96139 46.186H60.6111C61.8787 46.186 62.905 47.2124 62.905 48.4799C62.9102 49.7475 61.8838 50.7738 60.6163 50.7738Z" fill="white"/>
<path d="M55.9412 59.9599H8.63131C7.36376 59.9599 6.3374 58.9335 6.3374 57.666C6.3374 56.3984 7.36376 55.3721 8.63131 55.3721H55.9412C57.2088 55.3721 58.2351 56.3984 58.2351 57.666C58.2403 58.9335 57.2088 59.9599 55.9412 59.9599Z" fill="white"/>
<path d="M44.6311 69.1405H19.9472C18.6797 69.1405 17.6533 68.1142 17.6533 66.8466C17.6533 65.5791 18.6797 64.5527 19.9472 64.5527H44.6311C45.8987 64.5527 46.925 65.5791 46.925 66.8466C46.925 68.1142 45.8987 69.1405 44.6311 69.1405Z" fill="white"/>
<path d="M45.4779 0.26709C40.3512 0.26709 35.6967 2.32493 32.2892 5.65032C28.8817 2.32493 24.2272 0.26709 19.1005 0.26709H0.210449V19.1572V30.0314C0.210449 31.3452 1.27786 32.4126 2.5916 32.4126H11.6133V19.4907C11.6133 15.5855 14.4614 12.0856 18.3513 11.711C22.8108 11.2748 26.5827 14.7849 26.5827 19.1572V32.4126H37.9855V19.4907C37.9855 15.5855 40.8336 12.0856 44.7235 11.711C49.183 11.2748 52.9549 14.7849 52.9549 19.1572V32.4126H61.9766C63.2903 32.4126 64.3577 31.3452 64.3577 30.0314V19.1572V0.26709H45.4779Z" fill="white"/>
</g>
<defs>
<clipPath id="clip0_674_9341">
<rect width="331" height="89.8062" fill="white"/>
</clipPath>
</defs>
</svg>
