<?xml version="1.0" encoding="UTF-8"?>
<svg id="Konturlinie" xmlns="http://www.w3.org/2000/svg" xmlns:xlink="http://www.w3.org/1999/xlink" version="1.1" viewBox="0 0 200 170">
  <!-- Generator: Adobe Illustrator 29.1.0, SVG Export Plug-In . SVG Version: 2.1.0 Build 142)  -->
  <defs>
    <style>
      .st0 {
        fill: url(#Neues_Verlaufsfeld_3_Kopie);
      }

      .st1 {
        fill: url(#Unbenannter_Verlauf_7);
      }

      .st2 {
        fill: url(#Neues_Verlaufsfeld_3_Kopie1);
      }

      .st3 {
        fill: url(#Neues_Verlaufsfeld_3_Kopie2);
      }
    </style>
    <linearGradient id="Neues_Verlaufsfeld_3_Kopie" data-name="Neues Verlaufsfeld 3 Kopie" x1="-49.95" y1="6.97" x2="192.83" y2="4.6" gradientUnits="userSpaceOnUse">
      <stop offset="0" stop-color="#03657a"/>
      <stop offset=".5" stop-color="#8a0f76"/>
      <stop offset="1" stop-color="#f28b00"/>
    </linearGradient>
    <linearGradient id="Neues_Verlaufsfeld_3_Kopie1" data-name="Neues Verlaufsfeld 3 Kopie" x1="-49.89" y1="12.85" x2="192.89" y2="10.48" xlink:href="#Neues_Verlaufsfeld_3_Kopie"/>
    <linearGradient id="Neues_Verlaufsfeld_3_Kopie2" data-name="Neues Verlaufsfeld 3 Kopie" x1="-49.83" y1="18.75" x2="192.95" y2="16.38" xlink:href="#Neues_Verlaufsfeld_3_Kopie"/>
    <linearGradient id="Unbenannter_Verlauf_7" data-name="Unbenannter Verlauf 7" x1="-44.88" y1="96.25" x2="193.4" y2="96.25" gradientUnits="userSpaceOnUse">
      <stop offset="0" stop-color="#03657a"/>
      <stop offset=".5" stop-color="#8a0f76"/>
      <stop offset="1" stop-color="#f28b00"/>
    </linearGradient>
  </defs>
  <path class="st0" d="M84.41,9.78c4.28-4.09,9.81-6.33,15.59-6.33s11.31,2.25,15.59,6.33c.27.26.61.38.95.38.36,0,.73-.14,1-.43.53-.55.51-1.42-.04-1.95-4.79-4.58-11.01-7.1-17.49-7.1s-12.7,2.52-17.49,7.1c-.55.53-.57,1.4-.04,1.95.53.55,1.4.57,1.95.04Z"/>
  <path class="st2" d="M111.2,14.88c.38,0,.76-.16,1.03-.46.51-.57.46-1.44-.11-1.95-3.39-3.02-7.69-4.68-12.12-4.68s-8.73,1.66-12.11,4.68c-.57.51-.62,1.38-.11,1.95.51.57,1.38.62,1.95.11,2.88-2.57,6.53-3.98,10.28-3.98s7.4,1.41,10.28,3.98c.26.23.59.35.92.35Z"/>
  <path class="st3" d="M100,14.89c-2.39,0-4.69.78-6.65,2.26-.61.46-.73,1.32-.27,1.93.27.36.68.55,1.1.55.29,0,.58-.09.83-.28,2.95-2.23,7.02-2.23,9.97,0,.61.46,1.47.34,1.93-.27.46-.61.34-1.47-.27-1.93-1.96-1.48-4.26-2.26-6.65-2.26Z"/>
  <path class="st1" d="M193.73,140.43v-59.04c0-.05-.02-.09-.03-.14-.01-.08-.02-.15-.04-.22-.02-.07-.06-.13-.09-.19-.04-.06-.07-.12-.12-.18-.05-.05-.1-.1-.16-.14-.06-.04-.11-.08-.17-.12-.07-.03-.14-.05-.21-.08-.05-.01-.09-.04-.13-.05l-.17-.02v-6.14c0-.06-.02-.12-.03-.18,0-.04,0-.09-.02-.13-.03-.11-.08-.2-.14-.3-.01-.02-.02-.04-.03-.06,0,0,0,0,0,0l-3.73-4.94s.09-.07.12-.12c.21-.26.3-.59.24-.92-.16-.91-1.65-8.62-5.49-11.4v-3.52h.41c.37,0,.71-.18.92-.49.21-.3.26-.69.12-1.04-.64-1.69-2.83-6.9-5.49-7.78v-4.67c0-.62-.5-1.12-1.12-1.12s-1.12.5-1.12,1.12v4.63c-2.7.79-4.93,6.11-5.58,7.81-.13.34-.09.73.12,1.04.21.3.56.49.92.49h.41v3.52c-3.84,2.78-5.33,10.49-5.49,11.4-.06.33.03.66.24.92.04.04.08.08.12.12l-3.51,4.65c-.15.19-.23.43-.23.68v6.44h-.1c-.05.02-.09.05-.14.06-.07.02-.14.04-.21.07-.07.03-.12.07-.18.12-.06.04-.11.09-.16.14-.05.05-.08.11-.12.18-.04.06-.07.12-.09.19-.03.07-.03.14-.04.22,0,.05-.03.09-.03.15v1.41s-44.02.58-44.02.58v-4.27c0-.07-.03-.12-.04-.18-.01-.07-.02-.15-.04-.22-.03-.07-.07-.12-.11-.18-.04-.06-.07-.13-.12-.18-.05-.05-.11-.09-.17-.13-.06-.04-.11-.09-.18-.12-.07-.03-.14-.04-.21-.06-.06-.02-.12-.05-.19-.05l-.33-.02v-8.56c0-.24-.08-.48-.23-.68l-4.7-6.22c.14-.07.26-.16.36-.28.21-.26.3-.59.24-.92-.08-.46-2.03-11.02-7.04-14.5v-4.99h.84c.37,0,.71-.18.92-.49.21-.3.26-.69.12-1.04-.84-2.2-3.76-9.17-7.17-9.87v-6.2c0-.61-.49-1.1-1.09-1.12-.6.02-1.09.51-1.09,1.12v6.2c-3.41.69-6.33,7.67-7.17,9.87-.13.34-.09.73.12,1.04.21.3.56.49.92.49h.84v4.99c-5.01,3.48-6.96,14.04-7.04,14.5-.06.33.03.66.24.92.1.12.23.22.36.28l-4.7,6.22c-.15.19-.23.43-.23.68v8.56l-.33.02c-.07,0-.12.03-.19.05-.07.02-.15.03-.21.06-.07.03-.12.08-.18.12-.06.04-.12.08-.17.13-.05.05-.08.12-.12.18-.04.06-.08.12-.11.18-.03.07-.03.14-.04.22-.01.06-.04.12-.04.18v4.27s-8.42-.11-8.42-.11v-.27c0-.15-.03-.3-.09-.44l-2.39-5.62c-.17-.41-.57-.68-1.02-.68-.45.01-.85.25-1.04.66l-.46,1.01-3.75-8.72c-.18-.41-.58-.68-1.03-.68h-10.56c-.45,0-.85.27-1.03.68l-3.75,8.72-.46-1.01c-.19-.4-.57-.64-1.04-.66-.44,0-.84.27-1.02.68l-2.39,5.62c-.04.1-.05.21-.06.31l-5.52-.07v-1.41c0-.05-.02-.1-.03-.15-.01-.08-.02-.15-.04-.22-.02-.07-.06-.13-.09-.19-.04-.06-.07-.12-.12-.18-.05-.05-.1-.1-.16-.14-.06-.04-.11-.09-.18-.12-.07-.03-.14-.05-.21-.07-.05-.01-.09-.04-.14-.05h-.1v-6.45c0-.24-.08-.48-.23-.68l-3.51-4.65s.09-.07.12-.12c.21-.26.3-.59.24-.92-.16-.91-1.65-8.62-5.49-11.4v-3.52h.41c.37,0,.71-.18.92-.49.21-.3.26-.69.12-1.04-.65-1.71-2.88-7.02-5.58-7.81v-4.63c0-.62-.5-1.12-1.12-1.12s-1.12.5-1.12,1.12v4.67c-2.66.88-4.85,6.09-5.49,7.78-.13.34-.09.73.12,1.04.21.3.56.49.92.49h.41v3.52c-3.84,2.78-5.33,10.49-5.49,11.4-.06.33.03.66.24.92.04.04.08.08.12.12l-3.73,4.94s0,0,0,0c-.01.02-.02.04-.03.06-.06.09-.11.19-.14.3-.01.04-.01.09-.02.13,0,.06-.03.12-.03.18v6.14l-.17.02s-.09.03-.13.05c-.07.02-.15.04-.21.08-.06.03-.12.07-.17.12-.06.04-.11.09-.16.14-.05.05-.08.11-.12.18-.04.06-.07.12-.09.19-.02.07-.03.14-.04.22,0,.05-.03.09-.03.14v59.04c-2.19.42-3.85,2.35-3.85,4.66,0,2.62,2.13,4.75,4.75,4.75,1.83,0,3.4-1.05,4.2-2.57l65.49,13.95c.1,2.53,2.18,4.57,4.73,4.57,1.86,0,3.46-1.09,4.24-2.65l9.49,2.29c.38,2.24,2.31,3.95,4.65,3.97,2.35-.01,4.28-1.73,4.65-3.97l9.49-2.29c.78,1.57,2.38,2.65,4.24,2.65,2.56,0,4.63-2.03,4.73-4.57l65.49-13.95c.79,1.52,2.37,2.57,4.2,2.57,2.62,0,4.75-2.13,4.75-4.75,0-2.31-1.66-4.24-3.85-4.66ZM45.93,80.16l.46,1c.19.4.6.66,1.03.66.44,0,.84-.27,1.02-.68l4.45-10.37h9.08l4.45,10.37c.17.41.57.67,1.02.68h.01c.44,0,.84-.26,1.02-.66l.46-1,1.31,3.08h0s-25.49-.32-25.49-.32l1.17-2.75ZM34.64,83.21s-.01.01-.02.02l-11.39,15.1c-.31-.16-.64-.28-.99-.37v-17.22l12.39,1.63v.84ZM33.56,79.97l-11.32-1.49v-5.01l11.32,1.62v4.88ZM20,97.97c-2.08.51-3.63,2.37-3.63,4.61s1.55,4.1,3.63,4.6v39.43l-8.03-1.57c-.03-2.12-1.46-3.9-3.41-4.47v-58.04s.01,0,.02,0c.26,0,.48-.1.67-.24l10.74-1.51v17.21ZM20,78.49l-10.29,1.45v-4.86l10.29-1.6v5.01ZM20.95,71.06l-9.8,1.52,3.21-4.26s.03-.07.05-.11c.04-.06.07-.13.09-.2.03-.09.05-.19.06-.28,0-.03.01-.05.01-.07,0-.02,0-.03,0-.04,0-.12-.03-.23-.06-.34,0-.02-.01-.04-.02-.06-.05-.11-.11-.21-.19-.31,0-.01-.02-.02-.03-.03-.04-.05-.07-.1-.12-.14-.06-.04-.12-.06-.18-.09,0,0-.02,0-.03-.01-.12-.06-.25-.09-.38-.1,0,0,0,0-.01,0,.68-2.82,2.27-7.54,4.67-8.88.36-.2.58-.57.58-.98v-5.25c0-.57-.42-1.04-.97-1.11,1.23-2.71,2.79-4.78,3.52-5,.15-.05.41-.06.41-.06,0,0,.26,0,.41.06.72.21,2.29,2.29,3.52,5-.55.07-.97.54-.97,1.11v5.25c0,.41.22.78.58.98,2.4,1.34,3.98,6.07,4.67,8.88-.03,0-.06.02-.09.02-.07.01-.13.03-.2.05-.08.03-.15.06-.21.1-.03.02-.06.02-.09.04-.02.02-.04.05-.06.07-.06.05-.11.11-.16.18-.04.05-.07.1-.1.16-.03.07-.05.13-.07.21-.02.07-.03.13-.04.2,0,.03-.01.05-.01.08,0,.05.02.08.03.13,0,.08.02.15.05.22.02.07.06.14.1.21.02.04.03.08.06.12l3.26,4.31-11.11-1.59c-.11-.02-.22-.01-.33,0ZM80.89,156.36c-1.57.25-2.88,1.27-3.53,2.66l-55.11-11.74v-40.11c1.57-.38,2.82-1.54,3.35-3.05l51.35,4.51c.22,2.14,1.85,3.86,3.96,4.19v43.54ZM80.9,103.47c-1.68.27-3.06,1.4-3.67,2.94l-51.42-4.51c-.11-.78-.41-1.5-.86-2.11l11.11-14.74,44.84.59v17.84ZM98.95,160.02c-1.59.38-2.86,1.55-3.38,3.08l-9.19-2.27c-.09-2-1.42-3.67-3.24-4.28v-43.91c1.89-.63,3.26-2.39,3.26-4.49s-1.37-3.85-3.25-4.49v-18.88c.02-.08.04-.16.04-.25,0-.06-.02-.12-.03-.18v-4.19s12.28-.76,12.28-.76c.34,1.83,1.73,3.28,3.53,3.72v76.89ZM98.95,73.96c-1.62.4-2.9,1.62-3.39,3.2l-11.03.67v-7.05l11.07-1.45c.52,1.51,1.78,2.67,3.35,3.05v1.58ZM100.45,63.11c-.14-.01-.28-.04-.43-.04-.14,0-.28.03-.43.04-.06,0-.11.01-.16.02-2.09.29-3.73,1.92-4.03,4l-9.82,1.26,4.69-6.2s.03-.08.06-.12c.04-.07.07-.13.1-.21.02-.07.04-.15.05-.22,0-.04.03-.08.03-.13,0-.03-.01-.05-.01-.07,0-.08-.02-.15-.05-.23-.02-.07-.04-.13-.07-.19-.03-.06-.07-.12-.12-.17-.05-.06-.09-.12-.15-.17-.02-.02-.03-.04-.05-.06-.04-.03-.08-.03-.12-.06-.07-.04-.13-.07-.2-.1-.08-.03-.15-.04-.23-.05-.04,0-.08-.03-.13-.03h-.29c.83-3.6,2.95-10.15,6.23-11.98.36-.2.58-.57.58-.98v-6.73c0-.62-.5-1.12-1.12-1.12h-.29c1.56-3.56,3.84-6.49,4.98-7.02.22-.1.53-.14.53-.14,0,0,.02,0,.02,0,0,0,.02,0,.02,0,0,0,.32.04.53.14,1.14.53,3.42,3.46,4.98,7.02h-.29c-.62,0-1.12.5-1.12,1.12v6.73c0,.41.22.78.58.98,3.28,1.83,5.39,8.38,6.23,11.98h-.29s-.08.02-.13.03c-.08,0-.15.02-.23.05-.07.02-.14.06-.2.1-.04.02-.08.03-.12.06-.02.02-.03.04-.05.06-.06.05-.11.11-.15.17-.04.06-.08.11-.12.17-.03.06-.05.13-.07.19-.02.08-.04.15-.05.23,0,.03-.01.05-.01.07,0,.05.02.08.03.13,0,.08.02.15.05.22.02.07.06.14.1.21.02.04.03.08.06.12l4.69,6.2-9.82-1.26c-.3-2.09-1.94-3.72-4.03-4-.05,0-.1-.01-.16-.02ZM115.52,70.78v7.05l-11.03-.67c-.49-1.58-1.77-2.81-3.39-3.2v-1.58c1.57-.38,2.83-1.54,3.35-3.05l11.07,1.45ZM113.67,160.83l-9.19,2.27c-.53-1.53-1.79-2.7-3.38-3.08v-76.89c1.79-.44,3.18-1.89,3.53-3.72l12.28.76v4.19c0,.06-.03.11-.03.18,0,.08.01.17.03.25v18.88c-1.88.63-3.25,2.39-3.25,4.49s1.37,3.85,3.25,4.49v43.91c-1.81.61-3.14,2.28-3.23,4.28ZM119.14,85.63l44.84-.59,11.11,14.74c-.45.61-.74,1.33-.86,2.11l-51.42,4.51c-.61-1.54-1.99-2.67-3.67-2.94v-17.84ZM177.81,147.29l-55.11,11.74c-.66-1.39-1.96-2.41-3.53-2.66v-43.54c2.1-.34,3.73-2.05,3.95-4.19l51.35-4.51c.53,1.51,1.78,2.66,3.35,3.05v40.11ZM177.81,97.97c-.35.08-.67.21-.99.37l-11.39-15.1s-.01-.01-.02-.02v-.84s12.39-1.63,12.39-1.63v17.22ZM177.81,78.48l-11.32,1.49v-4.88l11.32-1.62v5.01ZM178.77,71.06l-11.11,1.59,3.26-4.31s.03-.08.06-.12c.04-.07.07-.13.1-.21.03-.07.04-.15.05-.22,0-.04.03-.08.03-.13,0-.03-.01-.05-.01-.08,0-.07-.02-.14-.04-.2-.02-.07-.04-.14-.07-.21-.03-.06-.06-.11-.1-.16-.05-.07-.1-.13-.16-.18-.02-.02-.03-.05-.06-.07-.03-.02-.06-.02-.09-.04-.07-.04-.14-.07-.21-.1-.07-.02-.13-.04-.2-.05-.03,0-.06-.02-.09-.02.68-2.82,2.27-7.54,4.67-8.88.36-.2.58-.57.58-.98v-5.25c0-.57-.42-1.04-.97-1.11,1.23-2.71,2.79-4.79,3.52-5,.16-.05.41-.06.41-.06,0,0,.26,0,.41.06.72.22,2.29,2.29,3.52,5-.55.07-.97.54-.97,1.11v5.25c0,.41.22.78.58.98,2.4,1.34,3.98,6.07,4.67,8.88,0,0,0,0-.01,0-.13.01-.26.05-.38.1,0,0-.02,0-.03.01-.06.03-.12.04-.18.09-.05.04-.08.09-.12.14,0,.01-.02.02-.03.03-.08.09-.15.19-.19.31,0,.02-.01.04-.02.06-.04.11-.06.22-.06.34,0,.02,0,.03,0,.04,0,.03.01.05.01.07,0,.1.02.19.06.28.02.07.06.13.09.2.02.03.03.07.05.11l3.21,4.26-9.8-1.52c-.11-.02-.22-.02-.33,0ZM190.34,75.08v4.86l-10.29-1.45v-5.01l10.29,1.6ZM191.48,140.55c-1.95.58-3.38,2.35-3.41,4.47l-8.03,1.57v-39.43c2.08-.51,3.63-2.37,3.63-4.6s-1.55-4.1-3.63-4.61v-17.21l10.74,1.51c.19.14.41.24.67.24,0,0,.01,0,.02,0v58.04Z"/>
</svg>