<svg width="308" height="83" viewBox="0 0 308 83" fill="none" xmlns="http://www.w3.org/2000/svg">
<g clip-path="url(#clip0_603_7128)">
<path d="M89.7031 82.336V66.1344H95.614C97.3672 66.1344 98.8856 66.4617 100.165 67.1162C101.444 67.7707 102.425 68.7003 103.12 69.9097C103.815 71.1191 104.159 72.5515 104.159 74.2162C104.159 76.7869 103.379 78.7836 101.827 80.2065C100.27 81.6293 98.0665 82.3407 95.2117 82.3407H89.7031V82.336ZM95.2692 67.7754H91.6287V80.695H95.2452C99.8293 80.695 102.119 78.5417 102.119 74.2352C102.124 69.9287 99.8389 67.7754 95.2692 67.7754Z" fill="black"/>
<path d="M108.159 68.8521C107.805 68.8521 107.508 68.7288 107.273 68.4916C107.038 68.2497 106.918 67.9462 106.918 67.5762C106.918 67.2063 107.038 66.9027 107.273 66.6609C107.508 66.419 107.805 66.3004 108.159 66.3004C108.528 66.3004 108.83 66.4237 109.06 66.6609C109.285 66.9027 109.404 67.2063 109.404 67.5762C109.404 67.9462 109.29 68.2545 109.06 68.4916C108.83 68.7335 108.533 68.8521 108.159 68.8521ZM107.259 82.3692V71.7073H109.079V82.3692H107.259Z" fill="black"/>
<path d="M118.118 82.7107C116.906 82.7107 115.852 82.4831 114.961 82.0277C114.07 81.5724 113.385 80.9227 112.906 80.0784C112.427 79.2342 112.188 78.2335 112.188 77.0857C112.188 75.9616 112.417 74.9751 112.872 74.1214C113.328 73.2677 113.955 72.5989 114.755 72.1057C115.555 71.6172 116.47 71.3705 117.495 71.3705C118.467 71.3705 119.31 71.5935 120.034 72.0298C120.752 72.4709 121.317 73.0827 121.724 73.8653C122.132 74.6478 122.333 75.5632 122.333 76.6161C122.333 76.8011 122.328 76.9719 122.323 77.1284C122.318 77.2849 122.304 77.4461 122.29 77.6169H113.984C114.113 78.7409 114.539 79.5994 115.268 80.197C115.996 80.7946 116.973 81.0934 118.204 81.0934C119.459 81.0934 120.69 80.7993 121.887 80.2207L122.103 81.7574C121.619 82.0562 121.02 82.2886 120.316 82.4593C119.607 82.6253 118.874 82.7107 118.118 82.7107ZM117.389 72.9262C116.46 72.9262 115.699 73.2155 115.095 73.7894C114.496 74.3633 114.132 75.1648 114.003 76.1893H120.575C120.575 76.0328 120.561 75.8857 120.532 75.7435C120.417 74.8328 120.086 74.1356 119.535 73.6566C118.989 73.1633 118.276 72.9262 117.389 72.9262Z" fill="black"/>
<path d="M137.474 82.7107C135.333 82.7107 133.666 82.0988 132.473 80.8657C131.28 79.6373 130.687 77.9204 130.687 75.715V66.1628H132.612V75.5442C132.612 77.3228 133.029 78.6698 133.867 79.5851C134.701 80.5005 135.927 80.9606 137.541 80.9606C139.155 80.9606 140.377 80.5052 141.215 79.5851C142.049 78.6698 142.47 77.3228 142.47 75.5442V66.1628H144.396V75.715C144.396 77.9204 143.787 79.6373 142.566 80.8657C141.34 82.0988 139.644 82.7107 137.474 82.7107Z" fill="black"/>
<path d="M148.458 82.3692V71.7073H150.173L150.197 73.5428C150.499 72.8598 150.963 72.3286 151.6 71.9444C152.233 71.5602 152.961 71.3658 153.775 71.3658C155.044 71.3658 156.021 71.7594 156.711 72.5515C157.396 73.3388 157.741 74.4676 157.741 75.9284V82.3692H155.921V76.2509C155.921 74.0645 155.063 72.9689 153.349 72.9689C152.391 72.9689 151.643 73.2819 151.102 73.9079C150.561 74.534 150.288 75.3925 150.288 76.4881V82.374H148.458V82.3692Z" fill="black"/>
<path d="M162.416 68.8521C162.061 68.8521 161.764 68.7288 161.53 68.4916C161.295 68.2497 161.175 67.9462 161.175 67.5762C161.175 67.2063 161.295 66.9027 161.53 66.6609C161.764 66.419 162.061 66.3004 162.416 66.3004C162.785 66.3004 163.087 66.4237 163.316 66.6609C163.542 66.9027 163.661 67.2063 163.661 67.5762C163.661 67.9462 163.546 68.2545 163.316 68.4916C163.087 68.7335 162.79 68.8521 162.416 68.8521ZM161.515 82.3692V71.7073H163.336V82.3692H161.515Z" fill="black"/>
<path d="M170.104 82.3692L165.692 71.7073H167.661L171.043 80.363L174.425 71.7073H176.264L171.876 82.3692H170.104Z" fill="black"/>
<path d="M183.377 82.7107C182.165 82.7107 181.112 82.4831 180.221 82.0277C179.33 81.5724 178.645 80.9227 178.166 80.0784C177.687 79.2342 177.447 78.2335 177.447 77.0857C177.447 75.9616 177.677 74.9751 178.132 74.1214C178.587 73.2677 179.215 72.5989 180.015 72.1057C180.815 71.6172 181.73 71.3705 182.755 71.3705C183.727 71.3705 184.57 71.5935 185.293 72.0298C186.012 72.4709 186.577 73.0827 186.984 73.8653C187.391 74.6478 187.593 75.5632 187.593 76.6161C187.593 76.8011 187.588 76.9719 187.583 77.1284C187.578 77.2849 187.564 77.4461 187.549 77.6169H179.244C179.373 78.7409 179.799 79.5994 180.527 80.197C181.255 80.7946 182.233 81.0934 183.464 81.0934C184.719 81.0934 185.95 80.7993 187.147 80.2207L187.363 81.7574C186.879 82.0562 186.28 82.2886 185.576 82.4593C184.867 82.6253 184.134 82.7107 183.377 82.7107ZM182.654 72.9262C181.725 72.9262 180.963 73.2155 180.36 73.7894C179.761 74.3633 179.397 75.1648 179.267 76.1893H185.839C185.839 76.0328 185.825 75.8857 185.796 75.7435C185.681 74.8328 185.351 74.1356 184.8 73.6566C184.254 73.1633 183.535 72.9262 182.654 72.9262Z" fill="black"/>
<path d="M190.917 82.3692V71.7073H192.632L192.656 73.9269C192.958 73.187 193.389 72.6084 193.963 72.191C194.533 71.7737 195.185 71.5602 195.913 71.5602C196.129 71.5602 196.358 71.5839 196.608 71.6266C196.857 71.6693 197.048 71.7262 197.173 71.7974L196.981 73.5048C196.794 73.4337 196.588 73.372 196.358 73.3246C196.129 73.2772 195.908 73.2487 195.693 73.2487C194.778 73.2487 194.059 73.5902 193.532 74.2732C193.005 74.9561 192.737 75.9094 192.737 77.1283V82.3739H190.917V82.3692Z" fill="black"/>
<path d="M202.437 82.7107C201.766 82.7107 201.095 82.6206 200.434 82.4356C199.769 82.2506 199.237 82.0087 198.839 81.7099L199.117 80.1116C199.572 80.4389 200.104 80.6997 200.712 80.8989C201.321 81.0981 201.891 81.1977 202.437 81.1977C203.237 81.1977 203.855 81.0602 204.3 80.7803C204.741 80.5053 204.966 80.1211 204.966 79.6373C204.966 79.3243 204.894 79.0682 204.75 78.8595C204.607 78.6555 204.353 78.4611 203.979 78.2809C203.605 78.1054 203.074 77.9156 202.374 77.7164C201.177 77.3607 200.319 76.9339 199.807 76.4359C199.294 75.9379 199.036 75.2929 199.036 74.4961C199.036 73.5285 199.395 72.7649 200.118 72.2053C200.837 71.6456 201.824 71.361 203.064 71.361C203.649 71.361 204.243 71.4417 204.841 71.6077C205.44 71.7737 205.929 71.9729 206.297 72.2147L205.996 73.7514C205.081 73.1681 204.089 72.8787 203.021 72.8787C202.307 72.8787 201.757 73.0021 201.373 73.2534C200.99 73.5001 200.794 73.8558 200.794 74.3063C200.794 74.7474 200.957 75.0937 201.287 75.3498C201.613 75.6059 202.221 75.862 203.107 76.1181C204.477 76.5165 205.435 76.9718 205.986 77.4841C206.537 77.9963 206.81 78.6793 206.81 79.533C206.81 80.4863 206.412 81.2546 205.612 81.8333C204.808 82.4166 203.749 82.7107 202.437 82.7107Z" fill="black"/>
<path d="M210.594 68.8521C210.24 68.8521 209.943 68.7288 209.708 68.4916C209.473 68.2497 209.354 67.9462 209.354 67.5762C209.354 67.2063 209.473 66.9027 209.708 66.6609C209.943 66.419 210.24 66.3004 210.594 66.3004C210.963 66.3004 211.265 66.4237 211.495 66.6609C211.72 66.9027 211.84 67.2063 211.84 67.5762C211.84 67.9462 211.725 68.2545 211.495 68.4916C211.265 68.7335 210.963 68.8521 210.594 68.8521ZM209.694 82.3692V71.7073H211.514V82.3692H209.694Z" fill="black"/>
<path d="M216.419 82.3692V73.2629H213.957V71.7072H216.419V68.6386H218.239V71.7072H221.238V73.2629H218.239V82.3692H216.419Z" fill="black"/>
<path d="M227.767 82.7107C226.78 82.7107 225.899 82.4688 225.123 81.985C224.347 81.5012 223.733 80.8325 223.293 79.9693C222.852 79.1108 222.627 78.1338 222.627 77.0382C222.627 75.9853 222.866 75.032 223.345 74.1688C223.824 73.3103 224.471 72.6274 225.285 72.1199C226.1 71.6171 227 71.361 227.982 71.361C228.797 71.361 229.539 71.5602 230.219 71.9586C230.895 72.357 231.441 72.9167 231.857 73.6423L231.9 71.7025H233.678V82.3644H231.9L231.857 80.4246C231.431 81.1503 230.866 81.7099 230.166 82.1083C229.462 82.5115 228.667 82.7107 227.767 82.7107ZM228.236 81.0886C228.979 81.0886 229.63 80.9179 230.186 80.5764C230.741 80.2349 231.182 79.7606 231.503 79.1488C231.824 78.537 231.987 77.835 231.987 77.0382C231.987 76.2414 231.824 75.5395 231.503 74.9276C231.182 74.3158 230.741 73.8415 230.186 73.5C229.63 73.1586 228.979 72.9878 228.236 72.9878C227.508 72.9878 226.861 73.1586 226.296 73.5C225.731 73.8415 225.29 74.3158 224.969 74.9276C224.648 75.5395 224.49 76.2414 224.49 77.0382C224.49 77.835 224.648 78.537 224.969 79.1488C225.29 79.7606 225.731 80.2349 226.296 80.5764C226.861 80.9179 227.508 81.0886 228.236 81.0886ZM226.416 68.724C226.071 68.724 225.793 68.6196 225.582 68.4062C225.367 68.1928 225.261 67.9082 225.261 67.5525C225.261 67.211 225.372 66.9264 225.592 66.6988C225.812 66.4711 226.085 66.3573 226.416 66.3573C226.761 66.3573 227.039 66.4664 227.264 66.6893C227.484 66.9122 227.594 67.1968 227.594 67.5525C227.594 67.894 227.484 68.1738 227.264 68.3967C227.043 68.6149 226.761 68.724 226.416 68.724ZM230.507 68.724C230.162 68.724 229.884 68.6196 229.673 68.4062C229.458 68.1928 229.352 67.9082 229.352 67.5525C229.352 67.211 229.462 66.9264 229.683 66.6988C229.903 66.4711 230.181 66.3573 230.507 66.3573C230.847 66.3573 231.129 66.4664 231.35 66.6893C231.57 66.9122 231.68 67.1968 231.68 67.5525C231.68 67.894 231.57 68.1738 231.35 68.3967C231.129 68.6149 230.847 68.724 230.507 68.724Z" fill="black"/>
<path d="M238.578 82.3692V73.2629H236.116V71.7072H238.578V68.6386H240.398V71.7072H243.397V73.2629H240.398V82.3692H238.578Z" fill="black"/>
<path d="M248.555 82.7107C247.885 82.7107 247.214 82.6206 246.553 82.4356C245.887 82.2506 245.356 82.0087 244.958 81.7099L245.236 80.1116C245.691 80.4389 246.223 80.6997 246.831 80.8989C247.439 81.0981 248.009 81.1977 248.555 81.1977C249.355 81.1977 249.973 81.0602 250.419 80.7803C250.859 80.5053 251.084 80.1211 251.084 79.6373C251.084 79.3243 251.013 79.0682 250.869 78.8595C250.725 78.6555 250.471 78.4611 250.098 78.2809C249.724 78.1054 249.192 77.9156 248.493 77.7164C247.296 77.3607 246.438 76.9339 245.926 76.4359C245.413 75.9379 245.154 75.2929 245.154 74.4961C245.154 73.5285 245.514 72.7649 246.237 72.2053C246.955 71.6456 247.942 71.361 249.183 71.361C249.767 71.361 250.361 71.4417 250.96 71.6077C251.559 71.7737 252.047 71.9729 252.416 72.2147L252.114 73.7514C251.199 73.1681 250.208 72.8787 249.14 72.8787C248.426 72.8787 247.875 73.0021 247.492 73.2534C247.109 73.5001 246.912 73.8558 246.912 74.3063C246.912 74.7474 247.075 75.0937 247.406 75.3498C247.731 75.6059 248.34 75.862 249.226 76.1181C250.596 76.5165 251.554 76.9718 252.105 77.4841C252.656 77.9963 252.929 78.6793 252.929 79.533C252.929 80.4863 252.531 81.2546 251.731 81.8333C250.926 82.4166 249.868 82.7107 248.555 82.7107Z" fill="black"/>
<path d="M258.408 82.7107C257.738 82.7107 257.067 82.6206 256.406 82.4356C255.74 82.2506 255.209 82.0087 254.811 81.7099L255.089 80.1116C255.544 80.4389 256.076 80.6997 256.684 80.8989C257.292 81.0981 257.862 81.1977 258.408 81.1977C259.208 81.1977 259.826 81.0602 260.272 80.7803C260.712 80.5053 260.938 80.1211 260.938 79.6373C260.938 79.3243 260.866 79.0682 260.722 78.8595C260.578 78.6555 260.324 78.4611 259.951 78.2809C259.577 78.1054 259.045 77.9156 258.346 77.7164C257.149 77.3607 256.291 76.9339 255.779 76.4359C255.266 75.9379 255.007 75.2929 255.007 74.4961C255.007 73.5285 255.367 72.7649 256.09 72.2053C256.813 71.6456 257.795 71.361 259.036 71.361C259.62 71.361 260.214 71.4417 260.813 71.6077C261.412 71.7737 261.9 71.9729 262.269 72.2147L261.967 73.7514C261.057 73.1681 260.061 72.8787 258.993 72.8787C258.279 72.8787 257.728 73.0021 257.345 73.2534C256.962 73.5001 256.765 73.8558 256.765 74.3063C256.765 74.7474 256.928 75.0937 257.259 75.3498C257.584 75.6059 258.193 75.862 259.079 76.1181C260.449 76.5165 261.407 76.9718 261.958 77.4841C262.509 77.9963 262.782 78.6793 262.782 79.533C262.782 80.4863 262.384 81.2546 261.584 81.8333C260.775 82.4166 259.721 82.7107 258.408 82.7107Z" fill="black"/>
<path d="M266.715 82.3692V73.2629H264.252V71.7072H266.715V68.6386H268.535V71.7072H271.533V73.2629H268.535V82.3692H266.715Z" fill="black"/>
<path d="M278.062 82.7107C277.075 82.7107 276.194 82.4688 275.418 81.985C274.642 81.5013 274.029 80.8325 273.588 79.9693C273.147 79.1109 272.922 78.1338 272.922 77.0382C272.922 75.9853 273.162 75.032 273.641 74.1688C274.12 73.3103 274.767 72.6274 275.581 72.1199C276.395 71.6171 277.296 71.361 278.278 71.361C279.092 71.361 279.834 71.5602 280.515 71.9586C281.19 72.357 281.736 72.9167 282.153 73.6423L282.196 71.7025H283.973V82.3645H282.196L282.153 80.4246C281.726 81.1503 281.161 81.7099 280.462 82.1083C279.758 82.5115 278.963 82.7107 278.062 82.7107ZM278.531 81.0886C279.274 81.0886 279.925 80.9179 280.481 80.5764C281.037 80.2349 281.477 79.7606 281.798 79.1488C282.119 78.537 282.282 77.835 282.282 77.0382C282.282 76.2414 282.119 75.5395 281.798 74.9277C281.477 74.3158 281.037 73.8415 280.481 73.5001C279.925 73.1586 279.274 72.9878 278.531 72.9878C277.803 72.9878 277.157 73.1586 276.592 73.5001C276.026 73.8415 275.586 74.3158 275.265 74.9277C274.944 75.5395 274.786 76.2414 274.786 77.0382C274.786 77.835 274.944 78.537 275.265 79.1488C275.586 79.7606 276.026 80.2349 276.592 80.5764C277.157 80.9179 277.803 81.0886 278.531 81.0886Z" fill="black"/>
<path d="M292.217 82.7107C291.23 82.7107 290.349 82.4688 289.573 81.985C288.797 81.5012 288.184 80.8325 287.743 79.9693C287.302 79.1108 287.077 78.1338 287.077 77.0382C287.077 75.9853 287.317 75.032 287.796 74.1688C288.275 73.3103 288.921 72.6273 289.736 72.1199C290.55 71.6171 291.45 71.361 292.432 71.361C293.247 71.361 293.989 71.5602 294.669 71.9586C295.345 72.357 295.891 72.9167 296.308 73.6423V65.0909H298.128V82.3597H296.351L296.308 80.4199C295.881 81.1455 295.316 81.7052 294.617 82.1036C293.913 82.5115 293.113 82.7107 292.217 82.7107ZM292.686 81.0886C293.429 81.0886 294.08 80.9179 294.636 80.5764C295.191 80.2349 295.632 79.7606 295.953 79.1488C296.274 78.537 296.437 77.835 296.437 77.0382C296.437 76.2414 296.274 75.5395 295.953 74.9276C295.632 74.3158 295.191 73.8415 294.636 73.5C294.08 73.1585 293.429 72.9878 292.686 72.9878C291.958 72.9878 291.312 73.1585 290.746 73.5C290.181 73.8415 289.74 74.3158 289.419 74.9276C289.099 75.5395 288.94 76.2414 288.94 77.0382C288.94 77.835 289.099 78.537 289.419 79.1488C289.74 79.7606 290.186 80.2349 290.746 80.5764C291.312 80.9179 291.958 81.0886 292.686 81.0886Z" fill="black"/>
<path d="M303.028 82.3692V73.2629H300.566V71.7072H303.028V68.6386H304.848V71.7072H307.847V73.2629H304.848V82.3692H303.028Z" fill="black"/>
<path d="M89.7031 51.2798V21.5705H98.1049L106.114 38.142L114.123 21.5705H122.328V51.2798H115.028V32.7115L109.103 44.9054H102.976L97.0079 32.6308V51.275H89.7031V51.2798Z" fill="black"/>
<path d="M126.251 51.2798L137.948 21.5705H146.154L157.851 51.2798H149.526L147.212 44.3599H136.377L134.064 51.2798H126.251ZM138.341 38.4598H145.248L141.795 28.0208L138.341 38.4598Z" fill="black"/>
<path d="M161.774 51.2798V21.5705H172.648C176.312 21.5705 179.172 22.4622 181.222 24.2455C183.277 26.0288 184.302 28.514 184.302 31.6918C184.302 33.385 183.89 34.9169 183.066 36.2876C182.242 37.6583 181.188 38.7823 179.905 39.6692L187.205 51.2798H178.53L173.309 41.7419H169.304V51.2798H161.774ZM171.589 27.3188H169.314V35.9983H171.513C174.942 35.9983 176.652 34.5375 176.652 31.6206C176.652 28.7512 174.966 27.3188 171.589 27.3188Z" fill="black"/>
<path d="M191.175 51.2798V21.5705H202.834C206.235 21.5705 208.822 22.2203 210.589 23.5246C212.357 24.8288 213.238 26.7307 213.238 29.2302C213.238 30.6104 212.917 31.8483 212.275 32.9439C211.634 34.0395 210.723 34.8742 209.545 35.4481C211.169 35.8892 212.448 36.7524 213.392 38.0282C214.335 39.304 214.805 40.8312 214.805 42.6003C214.805 45.4413 213.875 47.5946 212.017 49.0696C210.158 50.5446 207.423 51.2798 203.811 51.2798H191.175ZM202.207 26.9679H198.284V33.6506H202.168C204.784 33.6506 206.092 32.5028 206.092 30.212C206.096 28.0492 204.798 26.9679 202.207 26.9679ZM203.15 38.8487H198.284V45.8871H203.308C205.953 45.8871 207.275 44.7156 207.275 42.3679C207.275 40.0202 205.9 38.8487 203.15 38.8487Z" fill="black"/>
<path d="M233.141 51.9058C228.744 51.9058 225.352 50.7391 222.972 48.4056C220.591 46.0768 219.398 42.7474 219.398 38.4171V21.5705H227.369V37.8717C227.369 42.6146 229.295 44.986 233.141 44.986C236.987 44.986 238.913 42.6146 238.913 37.8717V21.5705H246.884V38.4171C246.884 42.7426 245.701 46.0721 243.33 48.4056C240.958 50.7391 237.567 51.9058 233.141 51.9058Z" fill="black"/>
<path d="M252.924 51.2798V21.5705H263.797C267.462 21.5705 270.321 22.4622 272.371 24.2455C274.426 26.0288 275.451 28.514 275.451 31.6918C275.451 33.385 275.039 34.9169 274.216 36.2876C273.392 37.6583 272.338 38.7823 271.054 39.6692L278.354 51.2798H269.679L264.458 41.7419H260.454V51.2798H252.924ZM262.739 27.3188H260.463V35.9983H262.662C266.092 35.9983 267.802 34.5375 267.802 31.6206C267.802 28.7512 266.116 27.3188 262.739 27.3188Z" fill="black"/>
<path d="M296.188 51.7066C292.787 51.7066 289.836 51.0995 287.336 49.8901C284.835 48.6807 282.905 46.9638 281.544 44.7489C280.184 42.5339 279.504 39.9017 279.504 36.852C279.504 33.6743 280.232 30.9092 281.683 28.5662C283.135 26.2185 285.171 24.3973 287.786 23.093C290.401 21.7887 293.476 21.1389 297.012 21.1389C298.789 21.1389 300.599 21.3429 302.429 21.746C304.259 22.1491 305.897 22.7041 307.334 23.406L306.079 29.6998C303.071 28.3718 300.02 27.7078 296.935 27.7078C295 27.7078 293.309 28.073 291.872 28.8034C290.43 29.5338 289.319 30.5582 288.533 31.872C287.748 33.1858 287.355 34.7462 287.355 36.5437C287.355 39.3041 288.179 41.4478 289.826 42.975C291.474 44.4975 293.793 45.2611 296.777 45.2611C297.433 45.2611 298.084 45.2184 298.741 45.1235C299.397 45.0334 300.048 44.8959 300.705 44.7109V39.9017H295.68V34.1581H307.851V49.4016C306.175 50.132 304.331 50.6964 302.314 51.1043C300.293 51.5074 298.252 51.7066 296.188 51.7066Z" fill="black"/>
<path d="M57.7344 38.5215H2.33753C1.15918 38.5215 0.201172 37.5682 0.201172 36.3967C0.201172 35.2205 1.15918 34.2719 2.33753 34.2719H57.7344C58.9128 34.2719 59.8708 35.2252 59.8708 36.3967C59.8708 37.5729 58.9128 38.5215 57.7344 38.5215Z" fill="#D12717"/>
<path d="M56.3786 47.0302H3.68812C2.50977 47.0302 1.55176 46.0769 1.55176 44.9054C1.55176 43.7339 2.50977 42.7806 3.68812 42.7806H56.3786C57.557 42.7806 58.515 43.7339 58.515 44.9054C58.515 46.0769 57.5618 47.0302 56.3786 47.0302Z" fill="#D12717"/>
<path d="M52.0342 55.5341H8.03284C6.85449 55.5341 5.89648 54.5808 5.89648 53.4093C5.89648 52.2379 6.85449 51.2845 8.03284 51.2845H52.0342C53.2126 51.2845 54.1706 52.2379 54.1706 53.4093C54.1706 54.5808 53.2174 55.5341 52.0342 55.5341Z" fill="#D12717"/>
<path d="M41.5155 64.0381H18.5568C17.3784 64.0381 16.4204 63.0847 16.4204 61.9133C16.4204 60.7418 17.3784 59.7885 18.5568 59.7885H41.5155C42.6938 59.7885 43.6518 60.7418 43.6518 61.9133C43.6518 63.0847 42.6938 64.0381 41.5155 64.0381Z" fill="#D12717"/>
<path d="M42.3008 0.246643C37.5299 0.246643 33.2045 2.14853 30.0335 5.23138C26.8625 2.14853 22.5371 0.246643 17.7662 0.246643H0.196289V17.7383V27.8074C0.196289 29.0263 1.18783 30.0128 2.40929 30.0128H10.8015V18.0466C10.8015 14.4278 13.4503 11.1884 17.0668 10.8374C21.215 10.4343 24.7261 13.6832 24.7261 17.7383V30.0128H35.3313V18.0466C35.3313 14.4278 37.9802 11.1884 41.5967 10.8374C45.7448 10.4343 49.2559 13.6832 49.2559 17.7383V30.0128H57.6481C58.8696 30.0128 59.8611 29.0263 59.8611 27.8074V17.7383V0.246643H42.3008Z" fill="#D12717"/>
</g>
<defs>
<clipPath id="clip0_603_7128">
<rect width="308" height="83" fill="white"/>
</clipPath>
</defs>
</svg>
